<?xml version="1.0" encoding="UTF-8" standalone="no"?>
<!-- Created with Inkscape (http://www.inkscape.org/) -->

<svg
   width="50"
   height="50"
   viewBox="0 0 13.229166 13.229167"
   version="1.1"
   id="svg5"
   xmlns="http://www.w3.org/2000/svg"
   xmlns:svg="http://www.w3.org/2000/svg">
  <defs
     id="defs2">
    <linearGradient
       id="linearGradient20038">
      <stop
         style="stop-color:#000000;stop-opacity:1;"
         offset="0"
         id="stop20036" />
    </linearGradient>
  </defs>
  <g
     id="layer1">
    <path
       id="path2292"
       style="fill:#ffffff;fill-rule:evenodd;stroke:#000000;stroke-width:0.245364;stroke-dasharray:none;paint-order:stroke fill markers"
       d="M 6.6145832 0.12247314 A 6.4919016 6.4919016 0 0 0 0.12247314 6.6145832 A 6.4919016 6.4919016 0 0 0 6.6145832 13.106693 A 6.4919016 6.4919016 0 0 0 13.106693 6.6145832 A 6.4919016 6.4919016 0 0 0 6.6145832 0.12247314 z M 6.6145832 0.38240559 A 6.2322258 6.2322258 0 0 1 12.846761 6.6145832 A 6.2322258 6.2322258 0 0 1 6.6145832 12.846761 A 6.2322258 6.2322258 0 0 1 0.38240559 6.6145832 A 6.2322258 6.2322258 0 0 1 6.6145832 0.38240559 z M 5.0358683 4.2509033 L 5.0358683 4.8508666 L 7.4259032 4.8508666 L 4.8860066 8.4666666 L 4.8860066 8.9782632 L 8.3431599 8.9782632 L 8.3431599 8.3782999 L 5.7769083 8.3782999 L 8.2816649 4.8332967 L 8.2816649 4.2509033 L 5.0358683 4.2509033 z " />
  </g>
</svg>
