<?xml version="1.0" encoding="UTF-8" standalone="no"?>
<!-- Created with Inkscape (http://www.inkscape.org/) -->

<svg
   width="50"
   height="50"
   viewBox="0 0 13.229166 13.229167"
   version="1.1"
   id="svg5"
   xmlns="http://www.w3.org/2000/svg"
   xmlns:svg="http://www.w3.org/2000/svg">
  <defs
     id="defs2">
    <linearGradient
       id="linearGradient20038">
      <stop
         style="stop-color:#000000;stop-opacity:1;"
         offset="0"
         id="stop20036" />
    </linearGradient>
  </defs>
  <g
     id="layer1">
    <path
       id="path2292"
       style="fill:#ffffff;fill-rule:evenodd;stroke:#000000;stroke-width:0.245364;stroke-dasharray:none;paint-order:stroke fill markers"
       d="M 6.6145832 0.12247314 A 6.4919016 6.4919016 0 0 0 0.12247314 6.6145832 A 6.4919016 6.4919016 0 0 0 6.6145832 13.106693 A 6.4919016 6.4919016 0 0 0 13.106693 6.6145832 A 6.4919016 6.4919016 0 0 0 6.6145832 0.12247314 z M 6.6145832 0.38240559 A 6.2322258 6.2322258 0 0 1 12.846761 6.6145832 A 6.2322258 6.2322258 0 0 1 6.6145832 12.846761 A 6.2322258 6.2322258 0 0 1 0.38240559 6.6145832 A 6.2322258 6.2322258 0 0 1 6.6145832 0.38240559 z M 7.0998249 4.1625366 C 6.6764923 4.1625366 6.2970483 4.2478259 5.9619099 4.4183349 C 5.6267715 4.5888439 5.3621874 4.8563334 5.1681599 5.2208699 C 4.9800121 5.5854064 4.8860066 6.0588558 4.8860066 6.6409382 C 4.8860066 7.1995022 4.9771067 7.6584247 5.1593749 8.0170816 C 5.3475228 8.3757385 5.6033908 8.6403226 5.9267699 8.8108316 C 6.2501491 8.9813406 6.6232655 9.0666299 7.0465982 9.0666299 C 7.3170608 9.0666299 7.5462637 9.0428702 7.7344115 8.9958332 C 7.928439 8.9546759 8.1048284 8.8931463 8.2635782 8.8108316 L 8.2635782 8.1225015 C 8.0989488 8.1989366 7.9167486 8.2638883 7.7168415 8.3168049 C 7.5169344 8.3697215 7.2906369 8.3958698 7.0378132 8.3958698 C 6.5909621 8.3958698 6.2532268 8.2461455 6.0239216 7.9462849 C 5.800496 7.6405446 5.6885416 7.2024764 5.6885416 6.6321532 C 5.6885416 5.4385902 6.1532749 4.8420816 7.082255 4.8420816 C 7.2468843 4.8420816 7.4232738 4.8653246 7.6114216 4.9123616 C 7.7995695 4.9593986 7.9638206 5.0093067 8.1049315 5.0622232 L 8.3431599 4.4183349 C 8.202049 4.3477795 8.0169435 4.2891552 7.7876382 4.2421183 C 7.5642127 4.1892017 7.3350098 4.1625366 7.0998249 4.1625366 z " />
  </g>
</svg>
